<svg xmlns="http://www.w3.org/2000/svg" xmlns:xlink="http://www.w3.org/1999/xlink" width="2000" zoomAndPan="magnify" viewBox="0 0 1500 1499.999933" height="2000" preserveAspectRatio="xMidYMid meet" version="1.0"><defs><g/><clipPath id="beeae75436"><path d="M 0.792969 0.519531 L 1431.382812 0.519531 L 1431.382812 1431.109375 L 0.792969 1431.109375 Z M 0.792969 0.519531 " clip-rule="nonzero"/></clipPath><clipPath id="316bedef48"><path d="M 716.089844 0.519531 C 321.042969 0.519531 0.792969 320.769531 0.792969 715.816406 C 0.792969 1110.863281 321.042969 1431.109375 716.089844 1431.109375 C 1111.136719 1431.109375 1431.382812 1110.863281 1431.382812 715.816406 C 1431.382812 320.769531 1111.136719 0.519531 716.089844 0.519531 Z M 716.089844 0.519531 " clip-rule="nonzero"/></clipPath><clipPath id="1d4dd22901"><path d="M 0.792969 0.519531 L 1431.382812 0.519531 L 1431.382812 1431.109375 L 0.792969 1431.109375 Z M 0.792969 0.519531 " clip-rule="nonzero"/></clipPath><clipPath id="272c2adf5f"><path d="M 716.089844 0.519531 C 321.042969 0.519531 0.792969 320.769531 0.792969 715.816406 C 0.792969 1110.863281 321.042969 1431.109375 716.089844 1431.109375 C 1111.136719 1431.109375 1431.382812 1110.863281 1431.382812 715.816406 C 1431.382812 320.769531 1111.136719 0.519531 716.089844 0.519531 Z M 716.089844 0.519531 " clip-rule="nonzero"/></clipPath><clipPath id="c109b5fc28"><rect x="0" width="1432" y="0" height="1432"/></clipPath><clipPath id="cd1c97ca42"><rect x="0" width="1432" y="0" height="1432"/></clipPath></defs><rect x="-150" width="1800" fill="#ffffff" y="-149.999993" height="1799.99992" fill-opacity="1"/><rect x="-150" width="1800" fill="#ffffff" y="-149.999993" height="1799.99992" fill-opacity="1"/><g transform="matrix(1, 0, 0, 1, 32, 54)"><g clip-path="url(#cd1c97ca42)"><g clip-path="url(#beeae75436)"><g clip-path="url(#316bedef48)"><g transform="matrix(1, 0, 0, 1, 0, 0.000000000000113687)"><g clip-path="url(#c109b5fc28)"><g clip-path="url(#1d4dd22901)"><g clip-path="url(#272c2adf5f)"><path fill="#8f00ff" d="M 0.792969 0.519531 L 1431.382812 0.519531 L 1431.382812 1431.109375 L 0.792969 1431.109375 Z M 0.792969 0.519531 " fill-opacity="1" fill-rule="nonzero"/></g></g></g></g></g></g><g fill="#c8f200" fill-opacity="1"><g transform="translate(172.164965, 1035.265404)"><g><path d="M 268.640625 5.9375 C 223.265625 5.9375 188.160156 0.226562 163.328125 -11.1875 C 138.503906 -22.613281 121.296875 -38.300781 111.703125 -58.25 C 102.109375 -78.195312 97.3125 -100.8125 97.3125 -126.09375 L 97.3125 -365.96875 L 20.5625 -365.96875 L 20.5625 -472.421875 L 102.796875 -472.421875 L 142.546875 -617.25 L 252.65625 -617.25 L 252.65625 -473.328125 L 356.375 -473.328125 L 356.375 -365.96875 L 252.65625 -365.96875 L 253.109375 -132.953125 C 253.109375 -123.515625 254.554688 -116.507812 257.453125 -111.9375 C 260.347656 -107.363281 264.382812 -104.316406 269.5625 -102.796875 C 274.738281 -101.273438 280.984375 -100.515625 288.296875 -100.515625 L 357.28125 -100.515625 L 357.28125 -6.859375 C 350.882812 -4.109375 340.984375 -1.289062 327.578125 1.59375 C 314.179688 4.488281 294.535156 5.9375 268.640625 5.9375 Z M 268.640625 5.9375 "/></g></g></g><g fill="#c8f200" fill-opacity="1"><g transform="translate(563.658503, 1035.265404)"><g><path d="M 216.5625 9.140625 C 177.269531 9.140625 146.429688 4.722656 124.046875 -4.109375 C 101.660156 -12.941406 85.285156 -24.441406 74.921875 -38.609375 C 64.566406 -52.773438 58.09375 -68.535156 55.5 -85.890625 C 52.914062 -103.253906 51.625 -120.460938 51.625 -137.515625 L 51.625 -678.921875 L 203.765625 -678.921875 L 203.765625 -157.625 C 203.765625 -143.3125 207.113281 -130.898438 213.8125 -120.390625 C 220.519531 -109.878906 234.988281 -103.253906 257.21875 -100.515625 L 277.78125 -99.140625 L 277.78125 -3.65625 C 268.039062 -0.300781 257.988281 2.664062 247.625 5.25 C 237.269531 7.84375 226.914062 9.140625 216.5625 9.140625 Z M 216.5625 9.140625 "/></g></g></g><g fill="#c8f200" fill-opacity="1"><g transform="translate(874.752047, 1035.265404)"><g><path d="M 216.5625 9.140625 C 177.269531 9.140625 146.429688 4.722656 124.046875 -4.109375 C 101.660156 -12.941406 85.285156 -24.441406 74.921875 -38.609375 C 64.566406 -52.773438 58.09375 -68.535156 55.5 -85.890625 C 52.914062 -103.253906 51.625 -120.460938 51.625 -137.515625 L 51.625 -678.921875 L 203.765625 -678.921875 L 203.765625 -157.625 C 203.765625 -143.3125 207.113281 -130.898438 213.8125 -120.390625 C 220.519531 -109.878906 234.988281 -103.253906 257.21875 -100.515625 L 277.78125 -99.140625 L 277.78125 -3.65625 C 268.039062 -0.300781 257.988281 2.664062 247.625 5.25 C 237.269531 7.84375 226.914062 9.140625 216.5625 9.140625 Z M 216.5625 9.140625 "/></g></g></g></g></g></svg>